Land_normalized_Motion_pl02
version=1
nRows=12
nColumns=43
inDegrees=yes
endheader
time		pelvis_tilt		pelvis_list		pelvis_rotation		pelvis_tx		pelvis_ty		pelvis_tz		hip_flexion_r		hip_adduction_r		hip_rotation_r		knee_angle_r		ankle_angle_r		subtalar_angle_r		mtp_angle_r		hip_flexion_l		hip_adduction_l		hip_rotation_l		knee_angle_l		ankle_angle_l		subtalar_angle_l		mtp_angle_l		lumbar_extension		lumbar_bending		lumbar_rotation		neck_flexion		neck_lateral_bending		neck_rotation		arm_flex_r		arm_add_r		arm_rot_r		elbow_flex_r		pro_sup_r		wrist_flex_r		wrist_dev_r		hand_finger_flex_r		arm_flex_l		arm_add_l		arm_rot_l		elbow_flex_l		pro_sup_l		wrist_flex_l		wrist_dev_l		hand_finger_flex_l		
0.977500		2.887316		-6.607451		89.561434		-0.015976		1.021142		0.593603		38.836337		-5.027605		-13.678147		-22.478871		-25.111589		0.001345		15.853147		40.356616		-10.408320		-9.951712		-26.150736		-21.479958		-9.761493		-3.828473		-17.983431		-0.461161		3.245730		-24.510834		-0.039272		2.575878		-77.332554		-5.712786		-71.988676		53.435457		104.207047		-15.234846		-9.583500		36.784583		-80.333868		-15.454424		-64.870593		37.822822		107.515970		-44.427965		-0.457715		79.155240		
0.980429		2.789843		-6.380577		89.597207		-0.016086		1.009501		0.588174		38.965568		-5.158128		-13.470218		-23.484964		-24.988410		0.348820		16.105127		40.589650		-10.354137		-9.800343		-27.352459		-21.176078		-9.130954		-3.670458		-18.243678		-0.607773		3.218491		-24.910459		0.207662		2.520281		-76.488876		-4.827906		-73.759994		52.596945		103.179610		-15.507547		-9.654808		36.300843		-80.023442		-14.718693		-65.707665		37.306231		107.179057		-44.581692		-0.532120		79.266132		
0.983359		2.665008		-6.092796		89.563413		-0.016073		0.997810		0.582908		39.137335		-5.309963		-13.343866		-24.664993		-24.930597		0.921378		16.594652		40.879300		-10.357282		-9.748271		-28.793645		-20.958743		-8.166854		-3.389179		-18.613655		-0.829161		3.177370		-25.256500		0.408646		2.450920		-75.882224		-4.334763		-74.703586		51.641195		102.111611		-15.340476		-9.969384		35.592080		-79.698353		-14.028251		-66.319856		36.681874		107.089665		-44.511523		-0.903781		79.652629		
0.986288		2.581334		-5.723812		89.571577		-0.016142		0.986329		0.577817		39.220692		-5.405423		-13.153235		-25.806296		-25.122398		1.073654		16.742400		41.091785		-10.303379		-9.532311		-30.132298		-21.108749		-7.904254		-3.299663		-19.133435		-0.989004		3.074124		-25.472283		0.585002		2.449207		-75.067330		-3.954603		-75.619242		50.702563		101.644107		-15.694861		-9.831206		35.283056		-79.342211		-13.457138		-66.412278		36.009917		107.030669		-44.435376		-0.860351		79.780095		
0.989217		2.469556		-5.319393		89.527391		-0.016226		0.974806		0.572748		39.296602		-5.513447		-13.042006		-26.991406		-25.290437		1.224051		16.848237		41.330816		-10.251801		-9.335584		-31.602544		-21.289220		-7.624478		-3.233063		-19.687108		-1.168309		3.009112		-25.733465		0.681354		2.433448		-74.422748		-3.689746		-76.124536		49.854600		101.338276		-15.889756		-9.724623		35.096538		-78.940624		-12.919357		-66.401205		35.425392		106.995293		-44.332173		-0.822420		79.894923		
0.992146		2.307010		-4.907034		89.631384		-0.016559		0.963076		0.568011		39.469958		-5.805053		-12.982528		-28.449881		-24.905356		1.984795		17.434959		41.606846		-10.086336		-9.081809		-33.093532		-20.877908		-6.507675		-2.774626		-20.379069		-1.388279		2.858561		-25.400736		1.010245		2.454614		-73.549072		-3.520820		-76.550915		48.553369		100.582667		-16.000354		-10.169815		34.720815		-78.355388		-12.525994		-66.514980		34.711183		106.945640		-43.885708		-1.181147		80.549800		
0.995076		2.243104		-4.510275		89.654751		-0.016594		0.951440		0.563329		39.654313		-5.892709		-12.854496		-29.847389		-24.736720		2.220211		17.690079		41.918807		-10.034361		-8.828635		-34.570917		-20.628187		-6.176035		-2.567238		-21.055460		-1.533515		2.782816		-25.208334		1.143638		2.421224		-72.649529		-3.498425		-76.756608		47.341915		100.295974		-16.180700		-10.034157		34.539657		-77.725157		-12.187451		-66.348085		34.000859		106.939448		-43.674462		-1.180370		80.791209		
0.998005		2.136587		-4.030833		89.729018		-0.017044		0.939656		0.558767		39.809401		-6.122627		-12.845212		-31.467176		-23.702555		2.879660		18.312266		42.242726		-9.897326		-8.471665		-36.281196		-19.626764		-5.165297		-2.065070		-21.864300		-1.667862		2.695060		-24.756092		1.446547		2.398215		-71.894705		-3.531721		-76.552025		46.125571		99.974274		-16.355989		-10.306227		34.424482		-77.064421		-11.931893		-65.961969		33.414356		106.781158		-43.258793		-1.362313		81.344037		
1.000934		2.095662		-3.571245		89.774044		-0.017329		0.927856		0.554322		40.038037		-6.251692		-12.813913		-33.202713		-22.452316		3.324300		18.795253		42.594140		-9.827602		-8.119139		-38.013962		-18.325639		-4.509170		-1.685426		-22.679215		-1.747412		2.648664		-24.281385		1.641174		2.338780		-71.074959		-3.675529		-76.188600		44.888110		99.846437		-16.512754		-10.344780		34.441949		-76.321881		-11.727257		-65.453771		32.821438		106.540903		-42.971981		-1.408953		81.697444		
1.003864		2.078801		-3.110743		89.820390		-0.017636		0.915989		0.549979		40.316934		-6.374086		-12.817441		-35.122292		-20.588084		3.809222		19.230241		42.971029		-9.767595		-7.742597		-39.842007		-16.424412		-3.784717		-1.371238		-23.518143		-1.796038		2.613902		-23.749885		1.813737		2.271047		-70.260275		-3.894939		-75.610512		43.659001		99.837494		-16.651367		-10.411616		34.552072		-75.538640		-11.565962		-64.795737		32.297680		106.178510		-42.678047		-1.446347		82.004242		
1.006793		2.087466		-2.651041		89.871354		-0.017950		0.904063		0.545768		40.655313		-6.479027		-12.806862		-37.226233		-18.139205		4.245219		19.558422		43.378348		-9.718702		-7.353348		-41.798255		-13.938460		-3.140454		-1.173417		-24.385954		-1.807600		2.602406		-23.147078		1.982809		2.183922		-69.453189		-4.149589		-74.844469		42.483914		99.926395		-16.767825		-10.478478		34.721078		-74.690724		-11.456577		-64.029848		31.844343		105.730695		-42.415298		-1.481786		82.228845		
1.009722		2.092071		-2.216750		89.861775		-0.018138		0.892063		0.541715		41.066565		-6.552296		-12.801343		-39.435529		-15.227304		4.454523		19.786776		43.839012		-9.654082		-6.909682		-43.909271		-10.940151		-2.821841		-1.045735		-25.258485		-1.872541		2.647667		-22.424759		2.105451		2.077698		-68.584012		-4.452437		-73.953723		41.385326		100.100766		-16.830678		-10.490121		34.888206		-73.763036		-11.377602		-63.262593		31.410014		105.319846		-42.200433		-1.489747		82.361932		
